<svg width="43" height="48" viewBox="0 0 43 48" fill="none" xmlns="http://www.w3.org/2000/svg">
<path d="M21.2142 23.2663C20.8873 22.2118 21.4087 21.1604 22.214 20.7608C23.0898 20.3262 24.4471 20.3941 25.255 21.9518C24.9625 20.7734 25.6268 19.8118 26.3985 19.467C27.3201 19.0547 28.6294 19.3325 29.3237 20.7156C29.2656 20.3363 29.2295 20.0055 29.3094 19.6783C29.5145 18.8401 30.0448 18.2927 30.8736 18.1056C31.8089 17.8949 32.575 18.2511 33.1082 19.0378C33.6248 19.7997 34.0956 20.5935 34.5818 21.3757C35.1195 22.2402 35.6653 23.0996 36.1107 24.0184C36.6486 25.1276 37.0553 26.2788 37.3642 27.4716C37.899 29.5385 37.8912 31.6281 37.7382 33.7256C37.6723 34.6283 37.2357 35.3504 36.4801 35.8351C34.9976 36.7862 33.5028 37.7197 31.9974 38.6349C31.5569 38.9025 31.0387 38.9938 30.521 39.0379C29.2123 39.1496 27.9285 38.9676 26.6522 38.6852C24.1016 38.1206 21.7365 37.0739 19.4424 35.8469C18.3391 35.2567 17.2432 34.6526 16.1841 33.9841C14.9138 33.1821 14.8591 31.3582 16.0945 30.5367C16.7967 30.0702 17.5453 30.0698 18.2805 30.4718C19.3061 31.032 20.3173 31.619 21.3352 32.1937C21.4473 32.2571 21.5668 32.3236 21.6832 32.2078C21.8326 32.0592 21.7113 31.9291 21.6353 31.8078C20.8187 30.5074 19.9979 29.2098 19.1793 27.9106C17.1992 24.7673 15.2178 21.6245 13.2401 18.48C12.5423 17.3704 12.8433 16.1101 13.9544 15.4481C14.8095 14.9389 16.0663 15.2089 16.6484 16.0744C17.3 17.0439 17.9079 18.0426 18.5326 19.0299C19.3893 20.3841 20.2437 21.74 21.0993 23.095C21.1299 23.1445 21.1642 23.1926 21.2142 23.2663Z" fill="#FCEE21"/>
<path d="M15.4267 12.0759C15.3583 11.9182 15.3726 11.7408 15.4131 11.564C15.6581 10.4893 15.9012 9.4143 16.1508 8.34041C16.2579 7.87941 16.6652 7.61317 17.1205 7.69168C17.5308 7.76228 17.8429 8.17398 17.7745 8.62464C17.6981 9.12458 17.5741 9.61705 17.4676 10.1121C17.3389 10.7093 17.2107 11.3063 17.0739 11.9016C16.9501 12.4396 16.589 12.7119 16.1015 12.6496C15.7838 12.6096 15.5423 12.408 15.4267 12.0759Z" fill="#FCEE21"/>
<path d="M10.2392 15.7859C10.35 16.1166 10.2697 16.3885 10.0683 16.6357C9.84267 16.9126 9.53983 16.9578 9.21716 16.8865C8.39953 16.7054 7.58552 16.5103 6.7696 16.3206C6.51467 16.2613 6.25786 16.2089 6.00576 16.1401C5.51055 16.0052 5.23847 15.589 5.33582 15.1296C5.42691 14.6971 5.86471 14.4127 6.35249 14.5169C7.4562 14.7527 8.55556 15.01 9.65557 15.2638C9.94837 15.331 10.1322 15.5301 10.2392 15.7859Z" fill="#FCEE21"/>
<path d="M20.035 15.0981C19.6127 15.2403 19.1872 15.0718 19.003 14.7171C18.7913 14.3094 18.8727 13.8923 19.2466 13.6525C20.2042 13.0389 21.1663 12.4313 22.1368 11.8384C22.5641 11.5775 23.0341 11.705 23.2898 12.1095C23.5252 12.482 23.4279 12.9582 23.0227 13.2225C22.0763 13.8395 21.1178 14.4383 20.1626 15.0426C20.1124 15.074 20.0536 15.0903 20.035 15.0981Z" fill="#FCEE21"/>
<path d="M12.717 12.2634C12.8591 12.6713 12.7038 13.0927 12.3755 13.2644C11.9846 13.4685 11.5252 13.3787 11.2991 13.0285C10.6663 12.0484 10.0395 11.0648 9.41989 10.0764C9.1749 9.68569 9.2976 9.19668 9.67475 8.95883C10.0659 8.71237 10.5318 8.80425 10.7912 9.20523C11.417 10.1721 12.0311 11.1462 12.6482 12.1179C12.6843 12.1739 12.7062 12.2391 12.717 12.2634Z" fill="#FCEE21"/>
<path d="M6.54243 22.3846C6.41333 22.022 6.54819 21.6451 6.91967 21.4038C7.60531 20.9593 8.29821 20.5262 8.98836 20.0892C9.23298 19.9341 9.47658 19.7774 9.72498 19.6277C10.1375 19.379 10.618 19.4915 10.8824 19.8926C11.1321 20.272 11.0265 20.7502 10.6112 21.0208C9.95806 21.447 9.29578 21.8592 8.63727 22.2768C8.34879 22.4597 8.06075 22.644 7.76993 22.8229C7.30615 23.1082 6.72556 22.8991 6.54243 22.3846Z" fill="#FCEE21"/>
</svg>
